<svg width="1531" height="253" viewBox="0 0 1531 253" fill="none" xmlns="http://www.w3.org/2000/svg">
<path d="M0 191.334H53.3732V185.485L42.1624 184.753C35.0947 184.022 30.7079 182.803 31.439 175.979L41.1876 17.0617L109.184 160.136H110.646L178.398 16.8179L188.147 175.979C188.878 182.803 184.491 184.022 176.936 184.753L166.213 185.485V191.334H234.94V185.485L223.973 184.753C216.418 184.022 213.493 182.803 212.762 175.979L203.013 21.9364C202.282 15.1117 206.669 13.8931 214.224 13.1619L225.191 12.4306V6.58093H173.28L118.688 122.113L64.0966 6.58093H9.74854V12.4306L20.7156 13.1619C27.7833 13.8931 32.4139 15.1117 31.6827 21.9364L21.9342 175.979C21.2031 182.803 17.7911 184.022 10.7234 184.753L0 185.485V191.334Z" fill="#F0F0F0"/>
<path d="M251.805 191.334H315.171V185.728L302.01 184.997C293.48 184.753 292.506 183.778 292.506 177.197V116.994C292.506 99.4451 301.523 87.0145 330.037 88.9644L339.542 89.9393V66.7842H337.349C316.146 66.7842 298.598 77.2649 292.506 103.589V65.078L251.805 80.6773V82.1397L269.597 92.133V177.197C269.597 183.778 268.378 184.997 260.335 185.241L251.805 185.728V191.334Z" fill="#F0F0F0"/>
<path d="M354.169 191.334H412.66V185.728L404.374 185.241C396.575 184.51 394.869 183.778 394.869 177.197V65.078L354.169 80.6773V82.1397L371.96 92.133V177.197C371.96 183.778 370.254 184.51 362.699 185.241L354.169 185.728V191.334ZM367.817 15.3555C367.817 23.8863 374.885 31.1985 383.415 31.1985C391.944 31.1985 399.012 23.8863 399.012 15.3555C399.012 7.31213 391.944 0 383.415 0C374.885 0 367.817 7.31213 367.817 15.3555Z" fill="#F0F0F0"/>
<path d="M454.236 253C464.472 253 467.153 245.2 474.221 229.601L539.536 85.0646C542.704 77.9961 545.141 75.0713 552.696 74.8276L560.495 74.5838V68.9778H514.19V74.5838L523.207 74.8276C531.006 75.0713 534.174 78.7274 530.275 87.5019L496.398 163.548L463.01 83.6021C460.816 77.9962 463.253 75.0713 470.809 74.8276L478.851 74.5838V68.9778H419.629V74.5838L426.696 74.8276C434.252 75.0713 435.714 77.7524 438.638 84.3333L483.725 191.334L470.809 219.608C448.143 223.508 441.563 232.77 441.563 240.813C441.563 247.882 447.168 253 454.236 253Z" fill="#F0F0F0"/>
<path d="M602.163 194.259C618.979 194.259 631.896 187.191 638.476 165.742L640.182 193.04L678.689 185.972V180.61H660.166L660.897 103.832C661.141 74.5838 648.955 65.078 625.315 65.078C611.667 65.078 597.532 70.1965 584.128 77.2649C572.673 82.8709 561.95 90.4268 561.95 98.7139C561.95 105.295 567.799 109.926 578.522 109.926C581.691 109.926 584.615 109.682 587.783 108.951C582.909 86.2832 593.876 72.1464 613.373 72.1464C630.19 72.1464 638.232 82.6272 638.232 96.2765C638.232 106.757 637.988 113.582 607.524 125.281C589.489 132.35 563.412 138.687 563.412 161.355C563.412 178.904 579.253 194.259 602.163 194.259ZM611.911 184.266C597.045 184.266 589.733 172.079 589.733 159.405C589.733 142.83 600.7 136.006 617.516 126.987C627.021 122.113 631.652 118.944 638.232 114.069L637.745 148.924C637.745 174.516 624.34 184.266 611.911 184.266Z" fill="#F0F0F0"/>
<path d="M755.769 191.334H824.496V185.485L813.529 184.753C805.974 184.022 802.318 182.803 802.318 175.979V100.42H820.109L902.24 191.334H933.679L848.38 97.4952C881.768 93.3516 902.24 78.9711 902.24 51.6725C902.24 16.0867 869.826 6.58093 825.714 6.58093H755.769V12.4306L766.736 13.1619C773.803 13.8931 777.703 15.1117 777.703 21.9364V175.979C777.703 182.803 773.803 184.022 766.736 184.753L755.769 185.485V191.334ZM802.318 92.8642V14.1368H823.765C854.96 14.1368 874.701 24.6175 874.701 53.3786C874.701 82.3834 854.96 92.8642 823.765 92.8642H802.318Z" fill="#F0F0F0"/>
<path d="M998.003 194.259C1027.98 194.259 1049.91 179.635 1057.47 146.73H1051.86C1042.85 174.76 1023.59 179.635 1007.99 179.635C980.943 179.635 961.202 155.261 961.202 119.675V115.044H1054.3C1047.23 78.7274 1020.42 65.3218 997.759 65.3218C965.345 65.3218 936.343 91.158 936.343 130.156C936.343 170.373 962.908 194.259 998.003 194.259ZM997.028 71.1715C1017.26 71.1715 1025.3 87.7457 1026.03 107.976H961.933C965.589 83.3584 979.48 71.1715 997.028 71.1715Z" fill="#F0F0F0"/>
<path d="M1118.43 194.259C1148.41 194.259 1170.34 178.416 1170.34 156.236C1170.34 134.056 1153.04 123.331 1132.57 117.969L1117.7 114.069C1107.71 111.388 1099.42 105.295 1099.42 91.8892C1099.42 78.4836 1111.37 71.4152 1123.79 71.4152C1130.62 71.4152 1136.71 72.1464 1139.64 77.0212L1159.13 108.951H1164.25L1158.4 70.684C1149.14 67.0279 1139.39 65.3218 1129.4 65.3218C1104.05 65.3218 1081.63 77.5087 1081.63 100.908C1081.63 120.163 1094.31 133.325 1112.58 138.199L1127.21 142.099C1139.15 145.512 1150.36 151.361 1150.36 165.742C1150.36 180.61 1133.79 188.409 1121.36 188.409C1112.34 188.409 1107.22 188.166 1103.57 181.585L1085.29 146.974H1080.41L1085.53 190.116C1096.01 193.04 1106.49 194.259 1118.43 194.259Z" fill="#F0F0F0"/>
<path d="M1256.54 194.259C1290.42 194.259 1322.1 168.667 1322.1 128.937C1322.1 91.8892 1292.12 65.3218 1257.27 65.3218C1224.13 65.3218 1191.71 90.6705 1191.71 130.4C1191.71 167.692 1221.69 194.259 1256.54 194.259ZM1257.03 187.191C1236.56 187.191 1218.28 170.86 1218.28 129.669C1218.28 87.9894 1236.56 71.9027 1257.03 71.9027C1277.01 71.9027 1295.29 87.9894 1295.29 129.669C1295.29 170.86 1277.01 187.191 1257.03 187.191Z" fill="#F0F0F0"/>
<path d="M1340.9 191.334H1404.27V185.728L1391.1 184.997C1382.57 184.753 1381.6 183.778 1381.6 177.197V116.994C1381.6 99.4451 1390.62 87.0145 1419.13 88.9644L1428.64 89.9393V66.7842H1426.44C1405.24 66.7842 1387.69 77.2649 1381.6 103.589V65.078L1340.9 80.6773V82.1397L1358.69 92.133V177.197C1358.69 183.778 1357.47 184.997 1349.43 185.241L1340.9 185.728V191.334Z" fill="#F0F0F0"/>
<path d="M1483.72 81.4085H1523.2L1531 68.9778H1483.72V42.6541H1482.26L1434.49 79.9461V81.4085H1460.81V168.667C1460.81 187.922 1469.1 193.284 1486.4 193.284C1501.27 193.284 1517.84 186.216 1525.15 180.366L1522.96 175.979C1515.89 179.635 1508.33 181.341 1500.29 181.341C1489.57 181.341 1483.72 176.954 1483.72 162.329V81.4085Z" fill="#F0F0F0"/>
</svg>
